<?xml version="1.0" standalone="no"?><svg xmlns:xlink="http://www.w3.org/1999/xlink" xmlns="http://www.w3.org/2000/svg" viewBox="0 0 1000 583.3278244199114" preserveAspectRatio="xMaxYMax slice"><g transform="scale(1.3221392212599987)"><rect x="0" y="0" width="819.3714285714286" height="441.20000000000005" fill="#ffffff"/><rect x="63.03" y="0" width="63.03" height="63.03" fill="#ffffff"/><g transform="translate(63.03,0) scale(3.1515) rotate(0)"><rect width="2" height="20" fill="#fafafa"/><rect x="4" width="2" height="20" fill="#fafafa"/><rect x="8" width="2" height="20" fill="#fafafa"/><rect x="12" width="2" height="20" fill="#fafafa"/><rect x="16" width="2" height="20" fill="#fafafa"/></g><rect x="126.06" y="0" width="63.03" height="63.03" fill="#f7f7f7"/><g transform="translate(126.06,0) scale(3.1515) rotate(0)"><rect width="20" height="2" fill="#ffffff"/><rect y="4" width="20" height="2" fill="#ffffff"/><rect y="8" width="20" height="2" fill="#ffffff"/><rect y="12" width="20" height="2" fill="#ffffff"/><rect y="16" width="20" height="2" fill="#ffffff"/></g><rect x="189.09" y="0" width="63.03" height="63.03" fill="#fdfdfd"/><g transform="translate(189.09,0) scale(3.1515) rotate(0)"><rect width="2" height="20" fill="#fcfcfc"/><rect x="4" width="2" height="20" fill="#fcfcfc"/><rect x="8" width="2" height="20" fill="#fcfcfc"/><rect x="12" width="2" height="20" fill="#fcfcfc"/><rect x="16" width="2" height="20" fill="#fcfcfc"/></g><rect x="252.11" y="0" width="63.03" height="63.03" fill="#f6f6f6"/><g transform="translate(252.11,0) scale(3.1515) rotate(0)"><rect width="2" height="20" fill="#ffffff"/><rect x="4" width="2" height="20" fill="#ffffff"/><rect x="8" width="2" height="20" fill="#ffffff"/><rect x="12" width="2" height="20" fill="#ffffff"/><rect x="16" width="2" height="20" fill="#ffffff"/></g><rect x="504.23" y="0" width="63.03" height="63.03" fill="#fcfcfc"/><g transform="translate(504.23,0) scale(3.1515) rotate(0)"><rect width="20" height="2" fill="#ffffff"/><rect y="4" width="20" height="2" fill="#ffffff"/><rect y="8" width="20" height="2" fill="#ffffff"/><rect y="12" width="20" height="2" fill="#ffffff"/><rect y="16" width="20" height="2" fill="#ffffff"/></g><rect x="567.26" y="0" width="63.03" height="63.03" fill="#ffffff"/><g transform="translate(567.26,0) scale(3.1515) rotate(0)"><rect width="20" height="2" fill="#ffffff"/><rect y="4" width="20" height="2" fill="#ffffff"/><rect y="8" width="20" height="2" fill="#ffffff"/><rect y="12" width="20" height="2" fill="#ffffff"/><rect y="16" width="20" height="2" fill="#ffffff"/></g><rect x="693.31" y="0" width="63.03" height="63.03" fill="#fbfbfb"/><g transform="translate(693.31,0) scale(3.1515) rotate(0)"><rect width="20" height="2" fill="#ffffff"/><rect y="4" width="20" height="2" fill="#ffffff"/><rect y="8" width="20" height="2" fill="#ffffff"/><rect y="12" width="20" height="2" fill="#ffffff"/><rect y="16" width="20" height="2" fill="#ffffff"/></g><rect x="756.34" y="0" width="63.03" height="63.03" fill="#ffffff"/><g transform="translate(756.34,0) scale(3.1515) rotate(0)"><rect width="2" height="20" fill="#f9f9f9"/><rect x="4" width="2" height="20" fill="#f9f9f9"/><rect x="8" width="2" height="20" fill="#f9f9f9"/><rect x="12" width="2" height="20" fill="#f9f9f9"/><rect x="16" width="2" height="20" fill="#f9f9f9"/></g><rect x="0" y="63.03" width="63.03" height="63.03" fill="#ffffff"/><g transform="translate(0,63.03) scale(3.1515) rotate(0)"><rect width="20" height="2" fill="#ffffff"/><rect y="4" width="20" height="2" fill="#ffffff"/><rect y="8" width="20" height="2" fill="#ffffff"/><rect y="12" width="20" height="2" fill="#ffffff"/><rect y="16" width="20" height="2" fill="#ffffff"/></g><rect x="63.03" y="63.03" width="63.03" height="63.03" fill="#ffffff"/><g transform="translate(63.03,63.03) scale(3.1515) rotate(0)"><rect width="20" height="2" fill="#ffffff"/><rect y="4" width="20" height="2" fill="#ffffff"/><rect y="8" width="20" height="2" fill="#ffffff"/><rect y="12" width="20" height="2" fill="#ffffff"/><rect y="16" width="20" height="2" fill="#ffffff"/></g><rect x="126.06" y="63.03" width="63.03" height="63.03" fill="#ffffff"/><g transform="translate(126.06,63.03) scale(3.1515) rotate(0)"><rect width="20" height="2" fill="#ffffff"/><rect y="4" width="20" height="2" fill="#ffffff"/><rect y="8" width="20" height="2" fill="#ffffff"/><rect y="12" width="20" height="2" fill="#ffffff"/><rect y="16" width="20" height="2" fill="#ffffff"/></g><rect x="252.11" y="63.03" width="63.03" height="63.03" fill="#ffffff"/><g transform="translate(252.11,63.03) scale(3.1515) rotate(0)"><rect width="20" height="2" fill="#ffffff"/><rect y="4" width="20" height="2" fill="#ffffff"/><rect y="8" width="20" height="2" fill="#ffffff"/><rect y="12" width="20" height="2" fill="#ffffff"/><rect y="16" width="20" height="2" fill="#ffffff"/></g><rect x="315.14" y="63.03" width="63.03" height="63.03" fill="#ffffff"/><g transform="translate(315.14,63.03) scale(3.1515) rotate(0)"><rect width="2" height="20" fill="#fafafa"/><rect x="4" width="2" height="20" fill="#fafafa"/><rect x="8" width="2" height="20" fill="#fafafa"/><rect x="12" width="2" height="20" fill="#fafafa"/><rect x="16" width="2" height="20" fill="#fafafa"/></g><rect x="504.23" y="63.03" width="63.03" height="63.03" fill="#f8f8f8"/><g transform="translate(504.23,63.03) scale(3.1515) rotate(0)"><rect width="20" height="2" fill="#fbfbfb"/><rect y="4" width="20" height="2" fill="#fbfbfb"/><rect y="8" width="20" height="2" fill="#fbfbfb"/><rect y="12" width="20" height="2" fill="#fbfbfb"/><rect y="16" width="20" height="2" fill="#fbfbfb"/></g><rect x="630.29" y="63.03" width="63.03" height="63.03" fill="#f6f6f6"/><g transform="translate(630.29,63.03) scale(3.1515) rotate(0)"><rect width="2" height="20" fill="#ffffff"/><rect x="4" width="2" height="20" fill="#ffffff"/><rect x="8" width="2" height="20" fill="#ffffff"/><rect x="12" width="2" height="20" fill="#ffffff"/><rect x="16" width="2" height="20" fill="#ffffff"/></g><rect x="63.03" y="126.06" width="63.03" height="63.03" fill="#f7f7f7"/><g transform="translate(63.03,126.06) scale(3.1515) rotate(0)"><rect width="20" height="2" fill="#ffffff"/><rect y="4" width="20" height="2" fill="#ffffff"/><rect y="8" width="20" height="2" fill="#ffffff"/><rect y="12" width="20" height="2" fill="#ffffff"/><rect y="16" width="20" height="2" fill="#ffffff"/></g><rect x="126.06" y="126.06" width="63.03" height="63.03" fill="#fdfdfd"/><g transform="translate(126.06,126.06) scale(3.1515) rotate(0)"><rect width="20" height="2" fill="#ffffff"/><rect y="4" width="20" height="2" fill="#ffffff"/><rect y="8" width="20" height="2" fill="#ffffff"/><rect y="12" width="20" height="2" fill="#ffffff"/><rect y="16" width="20" height="2" fill="#ffffff"/></g><rect x="189.09" y="126.06" width="63.03" height="63.03" fill="#ffffff"/><g transform="translate(189.09,126.06) scale(3.1515) rotate(0)"><rect width="2" height="20" fill="#f7f7f7"/><rect x="4" width="2" height="20" fill="#f7f7f7"/><rect x="8" width="2" height="20" fill="#f7f7f7"/><rect x="12" width="2" height="20" fill="#f7f7f7"/><rect x="16" width="2" height="20" fill="#f7f7f7"/></g><rect x="252.11" y="126.06" width="63.03" height="63.03" fill="#fefefe"/><g transform="translate(252.11,126.06) scale(3.1515) rotate(0)"><rect width="2" height="20" fill="#fbfbfb"/><rect x="4" width="2" height="20" fill="#fbfbfb"/><rect x="8" width="2" height="20" fill="#fbfbfb"/><rect x="12" width="2" height="20" fill="#fbfbfb"/><rect x="16" width="2" height="20" fill="#fbfbfb"/></g><rect x="315.14" y="126.06" width="63.03" height="63.03" fill="#f9f9f9"/><g transform="translate(315.14,126.06) scale(3.1515) rotate(0)"><rect width="2" height="20" fill="#ffffff"/><rect x="4" width="2" height="20" fill="#ffffff"/><rect x="8" width="2" height="20" fill="#ffffff"/><rect x="12" width="2" height="20" fill="#ffffff"/><rect x="16" width="2" height="20" fill="#ffffff"/></g><rect x="378.17" y="126.06" width="63.03" height="63.03" fill="#ffffff"/><g transform="translate(378.17,126.06) scale(3.1515) rotate(0)"><rect width="2" height="20" fill="#fbfbfb"/><rect x="4" width="2" height="20" fill="#fbfbfb"/><rect x="8" width="2" height="20" fill="#fbfbfb"/><rect x="12" width="2" height="20" fill="#fbfbfb"/><rect x="16" width="2" height="20" fill="#fbfbfb"/></g><rect x="693.31" y="126.06" width="63.03" height="63.03" fill="#ffffff"/><g transform="translate(693.31,126.06) scale(3.1515) rotate(0)"><rect width="2" height="20" fill="#ffffff"/><rect x="4" width="2" height="20" fill="#ffffff"/><rect x="8" width="2" height="20" fill="#ffffff"/><rect x="12" width="2" height="20" fill="#ffffff"/><rect x="16" width="2" height="20" fill="#ffffff"/></g><rect x="63.03" y="189.09" width="63.03" height="63.03" fill="#fbfbfb"/><g transform="translate(63.03,189.09) scale(3.1515) rotate(0)"><rect width="2" height="20" fill="#ffffff"/><rect x="4" width="2" height="20" fill="#ffffff"/><rect x="8" width="2" height="20" fill="#ffffff"/><rect x="12" width="2" height="20" fill="#ffffff"/><rect x="16" width="2" height="20" fill="#ffffff"/></g><rect x="189.09" y="189.09" width="63.03" height="63.03" fill="#ffffff"/><g transform="translate(189.09,189.09) scale(3.1515) rotate(0)"><rect width="2" height="20" fill="#fbfbfb"/><rect x="4" width="2" height="20" fill="#fbfbfb"/><rect x="8" width="2" height="20" fill="#fbfbfb"/><rect x="12" width="2" height="20" fill="#fbfbfb"/><rect x="16" width="2" height="20" fill="#fbfbfb"/></g><rect x="252.11" y="189.09" width="63.03" height="63.03" fill="#fbfbfb"/><g transform="translate(252.11,189.09) scale(3.1515) rotate(0)"><rect width="20" height="2" fill="#ffffff"/><rect y="4" width="20" height="2" fill="#ffffff"/><rect y="8" width="20" height="2" fill="#ffffff"/><rect y="12" width="20" height="2" fill="#ffffff"/><rect y="16" width="20" height="2" fill="#ffffff"/></g><rect x="378.17" y="189.09" width="63.03" height="63.03" fill="#ffffff"/><g transform="translate(378.17,189.09) scale(3.1515) rotate(0)"><rect width="2" height="20" fill="#f8f8f8"/><rect x="4" width="2" height="20" fill="#f8f8f8"/><rect x="8" width="2" height="20" fill="#f8f8f8"/><rect x="12" width="2" height="20" fill="#f8f8f8"/><rect x="16" width="2" height="20" fill="#f8f8f8"/></g><rect x="441.2" y="189.09" width="63.03" height="63.03" fill="#ffffff"/><g transform="translate(441.2,189.09) scale(3.1515) rotate(0)"><rect width="2" height="20" fill="#f7f7f7"/><rect x="4" width="2" height="20" fill="#f7f7f7"/><rect x="8" width="2" height="20" fill="#f7f7f7"/><rect x="12" width="2" height="20" fill="#f7f7f7"/><rect x="16" width="2" height="20" fill="#f7f7f7"/></g><rect x="504.23" y="189.09" width="63.03" height="63.03" fill="#fcfcfc"/><g transform="translate(504.23,189.09) scale(3.1515) rotate(0)"><rect width="2" height="20" fill="#fbfbfb"/><rect x="4" width="2" height="20" fill="#fbfbfb"/><rect x="8" width="2" height="20" fill="#fbfbfb"/><rect x="12" width="2" height="20" fill="#fbfbfb"/><rect x="16" width="2" height="20" fill="#fbfbfb"/></g><rect x="567.26" y="189.09" width="63.03" height="63.03" fill="#f7f7f7"/><g transform="translate(567.26,189.09) scale(3.1515) rotate(0)"><rect width="20" height="2" fill="#f8f8f8"/><rect y="4" width="20" height="2" fill="#f8f8f8"/><rect y="8" width="20" height="2" fill="#f8f8f8"/><rect y="12" width="20" height="2" fill="#f8f8f8"/><rect y="16" width="20" height="2" fill="#f8f8f8"/></g><rect x="630.29" y="189.09" width="63.03" height="63.03" fill="#fafafa"/><g transform="translate(630.29,189.09) scale(3.1515) rotate(0)"><rect width="2" height="20" fill="#f9f9f9"/><rect x="4" width="2" height="20" fill="#f9f9f9"/><rect x="8" width="2" height="20" fill="#f9f9f9"/><rect x="12" width="2" height="20" fill="#f9f9f9"/><rect x="16" width="2" height="20" fill="#f9f9f9"/></g><rect x="756.34" y="189.09" width="63.03" height="63.03" fill="#f7f7f7"/><g transform="translate(756.34,189.09) scale(3.1515) rotate(0)"><rect width="20" height="2" fill="#fefefe"/><rect y="4" width="20" height="2" fill="#fefefe"/><rect y="8" width="20" height="2" fill="#fefefe"/><rect y="12" width="20" height="2" fill="#fefefe"/><rect y="16" width="20" height="2" fill="#fefefe"/></g><rect x="0" y="252.11" width="63.03" height="63.03" fill="#fafafa"/><g transform="translate(0,252.11) scale(3.1515) rotate(0)"><rect width="2" height="20" fill="#ffffff"/><rect x="4" width="2" height="20" fill="#ffffff"/><rect x="8" width="2" height="20" fill="#ffffff"/><rect x="12" width="2" height="20" fill="#ffffff"/><rect x="16" width="2" height="20" fill="#ffffff"/></g><rect x="63.03" y="252.11" width="63.03" height="63.03" fill="#f7f7f7"/><g transform="translate(63.03,252.11) scale(3.1515) rotate(0)"><rect width="2" height="20" fill="#ffffff"/><rect x="4" width="2" height="20" fill="#ffffff"/><rect x="8" width="2" height="20" fill="#ffffff"/><rect x="12" width="2" height="20" fill="#ffffff"/><rect x="16" width="2" height="20" fill="#ffffff"/></g><rect x="189.09" y="252.11" width="63.03" height="63.03" fill="#ffffff"/><g transform="translate(189.09,252.11) scale(3.1515) rotate(0)"><rect width="20" height="2" fill="#ffffff"/><rect y="4" width="20" height="2" fill="#ffffff"/><rect y="8" width="20" height="2" fill="#ffffff"/><rect y="12" width="20" height="2" fill="#ffffff"/><rect y="16" width="20" height="2" fill="#ffffff"/></g><rect x="252.11" y="252.11" width="63.03" height="63.03" fill="#f6f6f6"/><g transform="translate(252.11,252.11) scale(3.1515) rotate(0)"><rect width="20" height="2" fill="#f5f5f5"/><rect y="4" width="20" height="2" fill="#f5f5f5"/><rect y="8" width="20" height="2" fill="#f5f5f5"/><rect y="12" width="20" height="2" fill="#f5f5f5"/><rect y="16" width="20" height="2" fill="#f5f5f5"/></g><rect x="315.14" y="252.11" width="63.03" height="63.03" fill="#ffffff"/><g transform="translate(315.14,252.11) scale(3.1515) rotate(0)"><rect width="2" height="20" fill="#ffffff"/><rect x="4" width="2" height="20" fill="#ffffff"/><rect x="8" width="2" height="20" fill="#ffffff"/><rect x="12" width="2" height="20" fill="#ffffff"/><rect x="16" width="2" height="20" fill="#ffffff"/></g><rect x="378.17" y="252.11" width="63.03" height="63.03" fill="#f9f9f9"/><g transform="translate(378.17,252.11) scale(3.1515) rotate(0)"><rect width="2" height="20" fill="#f7f7f7"/><rect x="4" width="2" height="20" fill="#f7f7f7"/><rect x="8" width="2" height="20" fill="#f7f7f7"/><rect x="12" width="2" height="20" fill="#f7f7f7"/><rect x="16" width="2" height="20" fill="#f7f7f7"/></g><rect x="441.2" y="252.11" width="63.03" height="63.03" fill="#fefefe"/><g transform="translate(441.2,252.11) scale(3.1515) rotate(0)"><rect width="2" height="20" fill="#fcfcfc"/><rect x="4" width="2" height="20" fill="#fcfcfc"/><rect x="8" width="2" height="20" fill="#fcfcfc"/><rect x="12" width="2" height="20" fill="#fcfcfc"/><rect x="16" width="2" height="20" fill="#fcfcfc"/></g><rect x="693.31" y="252.11" width="63.03" height="63.03" fill="#fcfcfc"/><g transform="translate(693.31,252.11) scale(3.1515) rotate(0)"><rect width="2" height="20" fill="#fcfcfc"/><rect x="4" width="2" height="20" fill="#fcfcfc"/><rect x="8" width="2" height="20" fill="#fcfcfc"/><rect x="12" width="2" height="20" fill="#fcfcfc"/><rect x="16" width="2" height="20" fill="#fcfcfc"/></g><rect x="189.09" y="315.14" width="63.03" height="63.03" fill="#ffffff"/><g transform="translate(189.09,315.14) scale(3.1515) rotate(0)"><rect width="20" height="2" fill="#fafafa"/><rect y="4" width="20" height="2" fill="#fafafa"/><rect y="8" width="20" height="2" fill="#fafafa"/><rect y="12" width="20" height="2" fill="#fafafa"/><rect y="16" width="20" height="2" fill="#fafafa"/></g><rect x="252.11" y="315.14" width="63.03" height="63.03" fill="#fdfdfd"/><g transform="translate(252.11,315.14) scale(3.1515) rotate(0)"><rect width="2" height="20" fill="#ffffff"/><rect x="4" width="2" height="20" fill="#ffffff"/><rect x="8" width="2" height="20" fill="#ffffff"/><rect x="12" width="2" height="20" fill="#ffffff"/><rect x="16" width="2" height="20" fill="#ffffff"/></g><rect x="378.17" y="315.14" width="63.03" height="63.03" fill="#fcfcfc"/><g transform="translate(378.17,315.14) scale(3.1515) rotate(0)"><rect width="2" height="20" fill="#ffffff"/><rect x="4" width="2" height="20" fill="#ffffff"/><rect x="8" width="2" height="20" fill="#ffffff"/><rect x="12" width="2" height="20" fill="#ffffff"/><rect x="16" width="2" height="20" fill="#ffffff"/></g><rect x="630.29" y="315.14" width="63.03" height="63.03" fill="#fbfbfb"/><g transform="translate(630.29,315.14) scale(3.1515) rotate(0)"><rect width="2" height="20" fill="#ffffff"/><rect x="4" width="2" height="20" fill="#ffffff"/><rect x="8" width="2" height="20" fill="#ffffff"/><rect x="12" width="2" height="20" fill="#ffffff"/><rect x="16" width="2" height="20" fill="#ffffff"/></g><rect x="756.34" y="315.14" width="63.03" height="63.03" fill="#f8f8f8"/><g transform="translate(756.34,315.14) scale(3.1515) rotate(0)"><rect width="20" height="2" fill="#ffffff"/><rect y="4" width="20" height="2" fill="#ffffff"/><rect y="8" width="20" height="2" fill="#ffffff"/><rect y="12" width="20" height="2" fill="#ffffff"/><rect y="16" width="20" height="2" fill="#ffffff"/></g><rect x="63.03" y="378.17" width="63.03" height="63.03" fill="#fefefe"/><g transform="translate(63.03,378.17) scale(3.1515) rotate(0)"><rect width="2" height="20" fill="#ffffff"/><rect x="4" width="2" height="20" fill="#ffffff"/><rect x="8" width="2" height="20" fill="#ffffff"/><rect x="12" width="2" height="20" fill="#ffffff"/><rect x="16" width="2" height="20" fill="#ffffff"/></g><rect x="189.09" y="378.17" width="63.03" height="63.03" fill="#ffffff"/><g transform="translate(189.09,378.17) scale(3.1515) rotate(0)"><rect width="20" height="2" fill="#ffffff"/><rect y="4" width="20" height="2" fill="#ffffff"/><rect y="8" width="20" height="2" fill="#ffffff"/><rect y="12" width="20" height="2" fill="#ffffff"/><rect y="16" width="20" height="2" fill="#ffffff"/></g><rect x="252.11" y="378.17" width="63.03" height="63.03" fill="#ffffff"/><g transform="translate(252.11,378.17) scale(3.1515) rotate(0)"><rect width="2" height="20" fill="#ffffff"/><rect x="4" width="2" height="20" fill="#ffffff"/><rect x="8" width="2" height="20" fill="#ffffff"/><rect x="12" width="2" height="20" fill="#ffffff"/><rect x="16" width="2" height="20" fill="#ffffff"/></g><rect x="378.17" y="378.17" width="63.03" height="63.03" fill="#ffffff"/><g transform="translate(378.17,378.17) scale(3.1515) rotate(0)"><rect width="2" height="20" fill="#ffffff"/><rect x="4" width="2" height="20" fill="#ffffff"/><rect x="8" width="2" height="20" fill="#ffffff"/><rect x="12" width="2" height="20" fill="#ffffff"/><rect x="16" width="2" height="20" fill="#ffffff"/></g><rect x="504.23" y="378.17" width="63.03" height="63.03" fill="#fbfbfb"/><g transform="translate(504.23,378.17) scale(3.1515) rotate(0)"><rect width="20" height="2" fill="#fbfbfb"/><rect y="4" width="20" height="2" fill="#fbfbfb"/><rect y="8" width="20" height="2" fill="#fbfbfb"/><rect y="12" width="20" height="2" fill="#fbfbfb"/><rect y="16" width="20" height="2" fill="#fbfbfb"/></g><rect x="567.26" y="378.17" width="63.03" height="63.03" fill="#ffffff"/><g transform="translate(567.26,378.17) scale(3.1515) rotate(0)"><rect width="20" height="2" fill="#ffffff"/><rect y="4" width="20" height="2" fill="#ffffff"/><rect y="8" width="20" height="2" fill="#ffffff"/><rect y="12" width="20" height="2" fill="#ffffff"/><rect y="16" width="20" height="2" fill="#ffffff"/></g><rect x="756.34" y="378.17" width="63.03" height="63.03" fill="#ffffff"/><g transform="translate(756.34,378.17) scale(3.1515) rotate(0)"><rect width="2" height="20" fill="#ffffff"/><rect x="4" width="2" height="20" fill="#ffffff"/><rect x="8" width="2" height="20" fill="#ffffff"/><rect x="12" width="2" height="20" fill="#ffffff"/><rect x="16" width="2" height="20" fill="#ffffff"/></g></g></svg>